<svg width="110" height="48" viewBox="0 0 110 48" fill="none" xmlns="http://www.w3.org/2000/svg">
<g id="Group 1845">
<path id="Vector" d="M11.0438 31.2675L8.46284 33.8484C8.12308 34.1882 8.12308 34.7391 8.46284 35.0788L11.0438 37.6597C11.3835 37.9995 11.9344 37.9995 12.2741 37.6597L14.8551 35.0788C15.1948 34.7391 15.1948 34.1882 14.8551 33.8484L12.2741 31.2675C11.9344 30.9277 11.3835 30.9277 11.0438 31.2675Z" fill="white"/>
<path id="Vector_2" d="M39.9754 9.622L37.3945 12.2029C37.0547 12.5427 37.0547 13.0935 37.3945 13.4333L39.9754 16.0142C40.3152 16.354 40.866 16.354 41.2058 16.0142L43.7867 13.4333C44.1265 13.0935 44.1265 12.5427 43.7867 12.2029L41.2058 9.622C40.866 9.28224 40.3152 9.28224 39.9754 9.622Z" fill="white"/>
<path id="Vector_3" d="M68.9813 31.5458L66.4003 34.1268C66.0606 34.4665 66.0606 35.0174 66.4003 35.3571L68.9813 37.9381C69.321 38.2778 69.8719 38.2778 70.2117 37.9381L72.7926 35.3571C73.1323 35.0174 73.1323 34.4665 72.7926 34.1268L70.2116 31.5458C69.8719 31.2061 69.321 31.2061 68.9813 31.5458Z" fill="white"/>
<path id="Vector_4" d="M97.1502 9.79704L94.5693 12.378C94.2295 12.7177 94.2295 13.2686 94.5693 13.6083L97.1502 16.1893C97.49 16.529 98.0408 16.529 98.3806 16.1893L100.962 13.6083C101.301 13.2686 101.301 12.7177 100.962 12.378L98.3806 9.79704C98.0408 9.45729 97.49 9.45728 97.1502 9.79704Z" fill="white"/>
<path id="Vector_5" d="M39.6796 11.6204L10.668 33.5378L12.4763 35.9315L41.488 14.0141L39.6796 11.6204Z" fill="white"/>
<path id="Vector_6" d="M97.9414 11.3385L68.9336 33.261L70.7424 35.6544L99.7502 13.7319L97.9414 11.3385Z" fill="white"/>
<path id="Vector_7" d="M40.8646 11.3374L39.0566 13.7314L68.0721 35.6438L69.8801 33.2498L40.8646 11.3374Z" fill="white"/>
<path id="Vector_8" d="M107.56 5.25763L99.5601 0.657633C99.0047 0.333435 98.3732 0.162598 97.7301 0.162598C97.087 0.162598 96.4555 0.333435 95.9001 0.657633L87.9001 5.25763C87.3476 5.58007 86.8891 6.0413 86.5698 6.59559C86.2506 7.14988 86.0818 7.77798 86.0801 8.41763V17.6176C86.0798 17.8868 86.11 18.1552 86.1701 18.4176L89.0801 16.2176V8.41763C89.0803 8.3032 89.1098 8.19074 89.1658 8.09096C89.2219 7.99118 89.3025 7.90741 89.4001 7.84763L97.4001 3.24763C97.5021 3.19501 97.6153 3.16755 97.7301 3.16755C97.8449 3.16755 97.958 3.19501 98.0601 3.24763L106.06 7.84763C106.159 7.90691 106.241 7.99031 106.299 8.09001C106.356 8.18972 106.388 8.30245 106.39 8.41763V17.6176C106.391 17.7334 106.361 17.8473 106.303 17.9475C106.245 18.0477 106.161 18.1306 106.06 18.1876L98.0601 22.7876C97.9601 22.8466 97.8461 22.8776 97.7301 22.8776C97.614 22.8776 97.5001 22.8466 97.4001 22.7876L93.4001 20.4876L90.8001 22.4876L95.8901 25.4276C96.4465 25.7489 97.0776 25.918 97.7201 25.918C98.3625 25.918 98.9937 25.7489 99.5501 25.4276L107.55 20.8276C108.107 20.5064 108.569 20.0443 108.89 19.4878C109.211 18.9314 109.38 18.3002 109.38 17.6576V8.45763C109.387 7.81082 109.223 7.17365 108.903 6.61138C108.583 6.0491 108.12 5.58191 107.56 5.25763Z" fill="white"/>
<path id="Vector_9" d="M40.5907 2.96746C40.7069 2.96646 40.8211 2.99761 40.9207 3.05746L48.9207 7.65746C49.0215 7.71447 49.1053 7.79736 49.1633 7.89757C49.2213 7.99778 49.2515 8.11167 49.2507 8.22746V16.3875L52.0707 18.5175C52.1856 18.1653 52.2462 17.7978 52.2507 17.4275V8.25747C52.2508 7.61494 52.0817 6.98373 51.7605 6.42727C51.4392 5.87081 50.9772 5.40873 50.4207 5.08747L42.4207 0.487465C41.8655 0.168086 41.2363 0 40.5957 0C39.9552 0 39.3259 0.168086 38.7707 0.487465L30.7707 5.08747C30.2199 5.4125 29.7638 5.87622 29.448 6.43242C29.1322 6.98862 28.9676 7.61787 28.9707 8.25747V17.4575C28.9742 17.6857 28.9977 17.9133 29.0407 18.1375L31.9707 15.9175V8.25747C31.9625 8.13865 31.987 8.01986 32.0417 7.91405C32.0964 7.80823 32.1791 7.71948 32.2807 7.65746L40.2807 3.05746C40.3754 3.00302 40.4817 2.97215 40.5907 2.96746Z" fill="white"/>
<path id="Vector_10" d="M44.6401 20.4476L40.9201 22.5976C40.8203 22.6518 40.7086 22.6803 40.5951 22.6803C40.4815 22.6803 40.3698 22.6518 40.2701 22.5976L36.1801 20.2576L33.5801 22.2576L38.7701 25.2576C39.3246 25.5789 39.9542 25.7481 40.5951 25.7481C41.236 25.7481 41.8655 25.5789 42.4201 25.2576L47.2801 22.4076L44.6401 20.4476Z" fill="white"/>
<path id="Vector_11" d="M20.28 32.2576V39.0776C20.279 39.1917 20.248 39.3035 20.19 39.4018C20.1321 39.5001 20.0493 39.5815 19.95 39.6376L11.95 44.2376C11.8507 44.3015 11.7358 44.3371 11.6178 44.3406C11.4997 44.3442 11.383 44.3155 11.28 44.2576L3.28 39.6576C3.18186 39.601 3.10052 39.5193 3.0443 39.4209C2.98808 39.3225 2.95899 39.2109 2.96 39.0976V29.8976C2.95719 29.7826 2.98543 29.669 3.04174 29.5687C3.09805 29.4684 3.18036 29.3851 3.28 29.3276L11.28 24.7276C11.38 24.6687 11.4939 24.6376 11.61 24.6376C11.7261 24.6376 11.84 24.6687 11.94 24.7276L16.66 27.4476L19.26 25.4476L13.48 22.0976C12.9229 21.7783 12.2921 21.6104 11.65 21.6104C11.0079 21.6104 10.377 21.7783 9.82 22.0976L1.82 26.6976C1.2661 27.0209 0.80659 27.4837 0.48726 28.0399C0.16793 28.5961 -6.76245e-05 29.2263 1.28681e-06 29.8676V39.0676C-0.000541003 39.7153 0.170325 40.3516 0.495248 40.9119C0.820172 41.4721 1.28758 41.9364 1.85 42.2576L9.85 46.8576C10.4064 47.1789 11.0375 47.348 11.68 47.348C12.3225 47.348 12.9536 47.1789 13.51 46.8576L21.51 42.2576C22.0569 41.9256 22.5077 41.4568 22.8181 40.8974C23.1285 40.338 23.2877 39.7073 23.28 39.0676V29.9776L20.28 32.2576Z" fill="white"/>
<path id="Vector_12" d="M79.39 26.9775L71.39 22.3675C70.8354 22.0462 70.2059 21.877 69.565 21.877C68.9241 21.877 68.2945 22.0462 67.74 22.3675L61.74 25.8375L64.34 27.8375L69.28 24.9675C69.3813 24.9129 69.4949 24.8854 69.61 24.8875C69.7253 24.883 69.8396 24.9107 69.94 24.9675L77.94 29.5675C78.0388 29.6268 78.1209 29.7102 78.1786 29.8099C78.2363 29.9096 78.2677 30.0223 78.27 30.1375V39.3375C78.2707 39.4533 78.2405 39.5672 78.1825 39.6674C78.1245 39.7676 78.0408 39.8505 77.94 39.9075L69.94 44.5075C69.8419 44.5666 69.7295 44.5978 69.615 44.5978C69.5004 44.5978 69.3881 44.5666 69.29 44.5075L61.29 39.9075C61.1892 39.8505 61.1054 39.7676 61.0474 39.6674C60.9894 39.5672 60.9592 39.4533 60.96 39.3375V32.7875L57.96 30.5175V39.3375C57.9599 39.98 58.129 40.6112 58.4502 41.1677C58.7715 41.7242 59.2335 42.1862 59.79 42.5075L67.79 47.1075C68.3445 47.4288 68.9741 47.5981 69.615 47.5981C70.2559 47.5981 70.8854 47.4288 71.44 47.1075L79.44 42.5075C79.9964 42.1862 80.4585 41.7242 80.7797 41.1677C81.1009 40.6112 81.27 39.98 81.27 39.3375V30.1375C81.2643 29.4915 81.0872 28.8587 80.7569 28.3035C80.4266 27.7483 79.9549 27.2908 79.39 26.9775Z" fill="white"/>
</g>
</svg>
